<svg width="25" height="25" xmlns="http://www.w3.org/2000/svg" xmlns:xlink="http://www.w3.org/1999/xlink" overflow="hidden"><defs><clipPath id="clip0"><rect x="0" y="0" width="25" height="25"/></clipPath></defs><g clip-path="url(#clip0)"><path d="M22.3958 5.72917 22.3958 18.4896 2.60417 18.4896 2.60417 5.72917 1.04167 5.72917 1.04167 20.3125 10.1562 20.3125C10.1562 20.7552 10.4948 21.0938 10.9375 21.0938L14.0625 21.0938C14.5052 21.0938 14.8437 20.7552 14.8437 20.3125L23.9583 20.3125 23.9583 5.72917 22.3958 5.72917Z" fill="#FFFFFF"/><path d="M21.3542 4.16667 3.64583 4.16667 3.64583 17.4479 21.3542 17.4479 21.3542 4.16667ZM5.20833 5.72917 11.9792 5.72917 11.9792 15.8854 5.20833 15.8854 5.20833 5.72917ZM19.7917 15.8854 13.0208 15.8854 13.0208 5.72917 19.7917 5.72917 19.7917 15.8854Z" fill="#FFFFFF"/><path d="M14.5833 8.33333 18.2292 8.33333 18.2292 9.11458 14.5833 9.11458Z" fill="#FFFFFF"/><path d="M14.5833 9.89583 18.2292 9.89583 18.2292 10.6771 14.5833 10.6771Z" fill="#FFFFFF"/><path d="M14.5833 11.4583 17.1094 11.4583 17.1094 12.2396 14.5833 12.2396Z" fill="#FFFFFF"/></g></svg>